# xmcd CD database file
#
# Track frame offsets:
#	150
#	13794
#	36669
#	49797
#	76146
#	127350
#	143823
#	155991
#	181539
#
# Disc length: 2720 seconds
#
# Revision: 0
# Processed by: cddbd v1.5.1PL0 Copyright (c) Steve Scherf et al.
# Submitted via: CDex 1.50beta9
#
DISCID=7c0a9e09
DTITLE=Chet Baker - ESP
DYEAR=2003
DGENRE=Jazz
TTITLE0=Do it the hard way
TTITLE1=I'm old fashioned
TTITLE2=You're driving me crazy
TTITLE3=Solar
TTITLE4=Once upon a summertime
TTITLE5=What is there to say
TTITLE6=Everything I've got belongs to you
TTITLE7=Esp
TTITLE8=Yesterdays
EXTD=YEAR: 2003
EXTT0=
EXTT1=
EXTT2=
EXTT3=
EXTT4=
EXTT5=
EXTT6=
EXTT7=
EXTT8=
PLAYORDER=
